<svg width="9" height="7" viewBox="0 0 9 7" version="1.1" xmlns="http://www.w3.org/2000/svg" xmlns:xlink="http://www.w3.org/1999/xlink">
<title>Rectangle 32</title>
<desc>Created using Figma</desc>
<g id="Canvas" transform="translate(-1013 3436)">
<g id="Rectangle 32">
<use xlink:href="#path0_stroke" transform="matrix(1.83697e-16 1 1 -1.83697e-16 1014.5 -3434.5)" fill="#3E9CE8"/>
</g>
</g>
<defs>
<path id="path0_stroke" d="M 2.70711 -0.707107C 2.31658 -1.09763 1.68342 -1.09763 1.29289 -0.707107C 0.902369 -0.316583 0.902369 0.316583 1.29289 0.707107L 2.70711 -0.707107ZM 4 2L 4.70711 2.70711C 5.09763 2.31658 5.09763 1.68342 4.70711 1.29289L 4 2ZM -0.707107 5.29289C -1.09763 5.68342 -1.09763 6.31658 -0.707107 6.70711C -0.316583 7.09763 0.316583 7.09763 0.707107 6.70711L -0.707107 5.29289ZM 1.29289 0.707107L 3.29289 2.70711L 4.70711 1.29289L 2.70711 -0.707107L 1.29289 0.707107ZM 3.29289 1.29289L -0.707107 5.29289L 0.707107 6.70711L 4.70711 2.70711L 3.29289 1.29289Z"/>
</defs>
</svg>
